    Stream #0:1(und): Audio: aac (LC) (mp4a / 0x6134706D), 44100 Hz, mono, fltp, 69 kb/s (default)
    Stream #0:2(und): Audio: mp3 (mp4a / 0x6134706D), 44100 Hz, stereo, fltp, 31 kb/s
    Stream #0:3(und): Audio: ac3 (ac-3 / 0x332D6361), 44100 Hz, stereo, fltp, 192 kb/s
